<?xml version="1.0" standalone="no"?>
<!DOCTYPE svg PUBLIC "-//W3C//DTD SVG 20010904//EN"
 "http://www.w3.org/TR/2001/REC-SVG-20010904/DTD/svg10.dtd">
<svg version="1.0" xmlns="http://www.w3.org/2000/svg"
 width="528.000000pt" height="528.000000pt" viewBox="0 0 528.000000 528.000000"
 preserveAspectRatio="xMidYMid meet">
<metadata>
Created by potrace 1.14, written by Peter Selinger 2001-2017
</metadata>
<g transform="translate(0.000000,528.000000) scale(0.100000,-0.100000)"
fill="#000000" stroke="none">
<path d="M2584 4502 c-44 -37 -48 -58 -49 -247 -2 -187 3 -229 33 -261 38 -42
83 -51 137 -29 58 25 70 74 69 286 -1 175 -12 234 -45 244 -10 4 -19 11 -19
16 0 17 -103 10 -126 -9z"/>
<path d="M1724 4279 c-31 -9 -74 -69 -74 -105 0 -22 31 -85 83 -171 21 -34 37
-66 37 -72 0 -6 3 -11 8 -11 4 0 18 -23 31 -50 34 -69 69 -99 117 -104 91 -8
154 76 119 159 -5 11 -26 48 -47 83 -21 34 -38 66 -38 71 0 5 -6 16 -12 23
-13 13 -51 79 -72 125 -13 25 -75 63 -102 62 -11 0 -33 -5 -50 -10z"/>
<path d="M3500 4282 c-27 -12 -56 -37 -63 -52 -4 -8 -16 -28 -26 -45 -74 -121
-161 -284 -161 -303 0 -45 30 -90 69 -106 21 -8 47 -13 57 -11 10 2 24 4 30 4
29 2 77 63 128 160 40 77 49 93 64 109 6 7 12 20 12 28 0 8 4 14 9 14 8 0 24
37 22 53 -1 4 3 7 7 7 12 0 7 62 -6 86 -25 48 -99 77 -142 56z"/>
<path d="M1049 3612 c-71 -72 -57 -143 38 -199 27 -15 50 -30 53 -33 3 -3 23
-15 45 -27 51 -27 101 -55 145 -81 52 -30 102 -37 138 -18 34 17 64 54 56 68
-3 4 0 8 6 8 5 0 9 14 8 30 -1 17 -5 30 -8 30 -3 0 -11 14 -18 30 -8 17 -20
30 -28 30 -8 0 -14 5 -14 10 0 6 -5 10 -11 10 -6 0 -48 23 -94 50 -46 28 -88
50 -94 50 -6 0 -11 4 -11 9 0 5 -24 20 -53 35 -71 34 -123 34 -158 -2z"/>
<path d="M4095 3609 c-27 -16 -61 -35 -75 -42 -14 -6 -27 -14 -30 -18 -5 -6
-42 -27 -122 -69 -79 -43 -114 -110 -85 -166 48 -93 111 -94 257 -6 19 12 53
31 75 43 167 91 203 133 181 212 -5 15 -22 38 -38 52 -41 35 -98 33 -163 -6z"/>
<path d="M2490 3587 c-3 -3 -23 -8 -45 -11 -22 -3 -58 -9 -80 -12 -103 -15
-310 -104 -394 -169 -62 -48 -170 -166 -212 -230 -127 -197 -179 -445 -142
-685 8 -52 16 -102 17 -110 1 -8 5 -22 8 -30 3 -8 16 -46 28 -85 56 -168 152
-330 277 -465 24 -25 43 -49 43 -53 0 -4 10 -18 23 -30 60 -58 148 -203 162
-269 13 -57 52 -135 76 -152 21 -15 60 -16 354 -14 l331 3 31 25 c30 25 44 47
78 125 10 22 21 42 24 45 9 7 30 42 41 68 5 12 14 22 20 22 5 0 10 6 10 14 0
8 4 16 8 18 4 2 23 23 42 48 19 24 46 57 60 72 14 15 30 33 35 40 6 8 26 31
45 53 19 22 46 55 60 74 14 18 31 39 38 46 6 8 12 16 12 20 0 3 11 21 24 38
30 39 116 216 116 237 0 9 4 20 8 26 14 15 47 146 60 234 8 54 7 243 -1 285
-3 17 -9 53 -13 80 -3 28 -10 55 -14 60 -4 6 -11 26 -15 45 -4 19 -11 41 -15
50 -4 8 -15 33 -26 55 -60 129 -145 239 -247 318 -15 12 -37 30 -49 39 -32 27
-200 108 -259 125 -112 32 -209 45 -359 50 -85 3 -157 2 -160 0z m183 -682 c3
-16 12 -59 20 -95 17 -74 38 -166 41 -183 2 -7 6 -19 9 -27 3 -8 8 -31 11 -50
3 -19 12 -62 20 -95 8 -33 20 -87 27 -120 6 -33 15 -69 19 -80 10 -26 50 -209
50 -229 0 -12 -5 -13 -30 -5 -16 6 -30 15 -30 20 0 5 -9 9 -20 9 -12 0 -32 7
-45 16 -31 20 -45 11 -45 -29 0 -18 -5 -50 -10 -72 -5 -22 -12 -60 -16 -85 -3
-25 -10 -61 -15 -82 -5 -20 -14 -69 -19 -110 -6 -40 -12 -82 -14 -93 -3 -11
-5 -27 -5 -35 -2 -25 -28 21 -34 60 -5 31 -28 129 -55 233 -6 20 -7 37 -4 37
3 0 1 5 -6 12 -7 7 -12 21 -12 33 0 11 -7 47 -15 80 -9 32 -18 75 -21 94 -3
20 -10 43 -15 52 -5 9 -10 31 -11 49 -1 17 -6 34 -10 36 -4 3 -8 14 -8 26 0
11 -9 59 -21 105 -11 47 -19 87 -17 88 2 2 39 -12 83 -30 l80 -34 7 42 c3 23
9 56 13 72 4 17 9 44 12 60 2 17 15 87 29 156 13 70 25 140 27 156 3 28 16 58
22 51 2 -2 6 -16 8 -33z"/>
<path d="M829 2742 c-42 -29 -51 -42 -56 -84 -8 -55 17 -100 65 -119 42 -16
412 -22 412 -7 0 5 4 7 9 4 4 -3 23 6 41 19 19 14 31 25 27 25 -4 0 -1 10 7
23 27 43 0 109 -60 143 -12 7 -93 11 -220 12 -172 1 -204 -1 -225 -16z"/>
<path d="M4021 2739 c-50 -30 -69 -91 -43 -144 19 -37 32 -50 62 -61 32 -11
410 -13 410 -2 0 4 6 8 14 8 8 0 27 10 42 23 20 18 27 34 30 72 3 45 1 51 -35
85 l-38 37 -205 1 c-186 0 -208 -1 -237 -19z"/>
<path d="M1335 2016 c-33 -17 -62 -33 -65 -36 -5 -5 -41 -26 -100 -57 -19 -10
-37 -21 -40 -24 -3 -3 -20 -14 -39 -25 -46 -25 -64 -44 -79 -79 -27 -66 37
-155 110 -155 20 0 121 51 216 109 27 17 54 31 61 31 6 0 11 3 11 8 0 4 14 13
31 21 57 25 103 86 96 126 -11 61 -66 113 -118 112 -13 0 -51 -14 -84 -31z"/>
<path d="M3832 2030 c-58 -36 -79 -121 -40 -167 12 -15 114 -83 124 -83 3 0
39 -20 80 -45 40 -25 78 -45 84 -45 5 0 10 -3 10 -8 0 -4 19 -15 42 -25 66
-29 107 -16 158 49 37 46 2 126 -73 169 -28 16 -72 42 -97 56 -218 126 -235
131 -288 99z"/>
<path d="M2344 1177 c-32 -16 -54 -59 -54 -105 0 -32 7 -47 31 -71 18 -18 42
-31 57 -32 15 0 139 -1 275 0 176 0 253 3 263 12 8 6 14 8 14 3 0 -5 10 7 22
26 28 46 27 111 -1 139 -12 12 -25 21 -31 21 -5 0 -10 5 -10 10 0 14 -538 11
-566 -3z"/>
<path d="M2463 900 c-120 -5 -122 -5 -147 -35 -53 -61 -31 -152 42 -176 50
-17 493 -18 540 -2 43 15 67 40 75 81 8 37 -2 67 -33 102 -21 24 -26 25 -188
30 -92 3 -222 3 -289 0z"/>
<path d="M2516 599 c-28 -17 -46 -37 -46 -51 0 -5 72 -8 160 -8 88 0 160 4
160 8 0 13 -23 39 -50 55 -37 22 -186 20 -224 -4z"/>
</g>
</svg>
