<?xml version="1.0" standalone="no"?>
<!DOCTYPE svg PUBLIC "-//W3C//DTD SVG 20010904//EN"
 "http://www.w3.org/TR/2001/REC-SVG-20010904/DTD/svg10.dtd">
<svg version="1.0" xmlns="http://www.w3.org/2000/svg"
 width="1458.000000pt" height="1458.000000pt" viewBox="0 0 1458.000000 1458.000000"
 preserveAspectRatio="xMidYMid meet">
<metadata>
Created by potrace 1.14, written by Peter Selinger 2001-2017
</metadata>
<g transform="translate(0.000000,1458.000000) scale(0.100000,-0.100000)"
fill="#000000" stroke="none">
<path d="M7157 12461 c-3 -12 -17 -21 -40 -25 -32 -6 -37 -11 -43 -43 -4 -23
-13 -37 -25 -40 -15 -4 -19 -15 -19 -45 0 -31 -4 -41 -20 -45 -20 -5 -20 -14
-20 -553 0 -539 0 -548 20 -553 16 -4 20 -14 20 -45 0 -32 4 -41 21 -45 11 -3
23 -15 26 -26 3 -12 12 -21 20 -21 8 0 17 -9 20 -20 3 -11 11 -20 19 -20 7 0
20 -10 29 -22 14 -21 24 -23 136 -26 146 -4 185 1 192 28 3 12 14 20 25 20 11
0 22 9 25 20 3 11 12 20 21 20 10 0 16 8 16 21 0 12 8 23 20 26 13 4 22 17 26
42 3 20 14 42 23 49 14 12 16 67 19 556 2 524 2 544 -16 548 -13 4 -21 18 -25
45 -5 29 -13 42 -27 46 -15 4 -20 13 -20 41 0 32 -3 36 -36 42 -24 4 -38 13
-41 25 -5 18 -18 19 -173 19 -155 0 -168 -1 -173 -19z"/>
<path d="M4817 11851 c-3 -14 -17 -19 -62 -23 -39 -3 -60 -10 -67 -21 -5 -10
-15 -17 -22 -17 -8 0 -16 -9 -19 -21 -3 -11 -15 -23 -26 -26 -17 -4 -21 -13
-21 -45 0 -31 -4 -41 -20 -45 -19 -5 -20 -14 -20 -123 0 -109 1 -118 20 -123
15 -4 20 -14 20 -40 0 -26 5 -36 20 -40 11 -3 20 -14 20 -25 0 -11 8 -22 19
-25 13 -3 21 -17 26 -45 4 -28 12 -42 26 -45 14 -4 19 -14 19 -40 0 -26 5 -36
19 -40 13 -3 21 -17 26 -45 4 -28 12 -42 26 -45 11 -3 19 -14 19 -25 0 -11 9
-22 20 -25 15 -4 20 -14 20 -40 0 -26 5 -36 19 -40 13 -3 21 -17 26 -45 4 -28
12 -42 26 -45 14 -4 19 -14 19 -40 0 -26 5 -36 20 -40 11 -3 20 -14 20 -25 0
-11 8 -22 19 -25 11 -3 21 -17 25 -40 4 -23 13 -37 26 -40 15 -4 20 -14 20
-40 0 -27 5 -36 21 -40 11 -3 23 -15 26 -26 3 -14 17 -23 40 -27 23 -4 37 -14
40 -25 5 -16 15 -19 65 -19 51 0 61 -3 65 -20 3 -11 9 -20 14 -20 4 0 13 9 19
20 9 17 21 20 75 20 57 0 68 3 87 25 12 14 28 25 35 25 7 0 13 7 13 15 0 9 11
20 25 25 19 7 25 17 25 39 0 20 7 34 20 41 19 10 20 21 20 149 0 127 -2 139
-19 144 -12 3 -20 17 -24 44 -5 29 -13 42 -27 46 -11 3 -20 14 -20 25 0 11 -9
22 -20 25 -15 4 -20 14 -20 40 0 25 -5 36 -19 40 -12 3 -20 17 -24 44 -5 29
-13 42 -27 46 -15 4 -20 13 -20 40 0 26 -5 36 -20 40 -11 3 -20 14 -20 25 0
11 -8 22 -19 25 -13 3 -21 17 -26 45 -4 28 -12 42 -26 45 -14 4 -19 14 -19 40
0 26 -5 36 -20 40 -11 3 -20 14 -20 25 0 11 -9 22 -20 25 -15 4 -20 14 -20 40
0 29 -4 36 -22 39 -19 2 -24 10 -26 46 -2 30 -8 42 -19 42 -8 0 -17 9 -20 20
-3 11 -12 20 -20 20 -8 0 -17 9 -20 21 -3 11 -16 25 -29 30 -13 4 -24 15 -24
24 0 11 -11 15 -41 15 -32 0 -42 4 -46 20 -5 18 -14 20 -78 20 -63 0 -73 -3
-78 -19z"/>
<path d="M9677 11850 c-4 -15 -14 -20 -40 -20 -26 0 -36 -5 -40 -20 -3 -12
-14 -20 -26 -20 -15 0 -21 -6 -21 -21 0 -12 -8 -23 -20 -26 -11 -3 -20 -12
-20 -20 0 -8 -9 -17 -19 -20 -14 -3 -22 -17 -26 -45 -5 -28 -13 -42 -26 -45
-14 -4 -19 -14 -19 -40 0 -26 -5 -36 -20 -40 -11 -3 -20 -14 -20 -25 0 -11 -8
-22 -20 -25 -13 -3 -22 -17 -26 -39 -3 -19 -15 -39 -25 -45 -13 -7 -19 -21
-19 -45 0 -27 -5 -37 -20 -41 -11 -3 -20 -14 -20 -25 0 -11 -8 -22 -20 -25
-13 -3 -22 -17 -26 -39 -3 -19 -15 -39 -25 -45 -13 -7 -19 -21 -19 -45 0 -27
-5 -37 -20 -41 -15 -4 -20 -14 -20 -39 0 -28 -5 -36 -25 -44 -14 -5 -25 -16
-25 -24 0 -9 -9 -20 -20 -26 -14 -8 -20 -21 -20 -46 0 -27 -5 -37 -19 -41 -15
-4 -19 -18 -24 -86 -8 -122 1 -204 24 -210 14 -4 19 -14 19 -41 0 -30 4 -36
21 -36 12 0 23 -8 26 -20 3 -11 12 -20 20 -20 8 0 17 -9 20 -19 6 -24 31 -31
106 -31 50 0 60 -3 64 -20 3 -11 11 -20 18 -20 7 0 15 9 18 20 4 17 14 20 65
20 50 0 60 3 65 19 3 12 17 21 40 25 32 6 37 11 43 43 4 23 13 37 25 40 11 3
19 14 19 25 0 11 8 22 20 25 13 3 22 17 26 40 4 19 13 37 21 40 8 3 19 16 24
29 4 13 15 24 24 24 11 0 15 10 15 36 0 27 5 37 19 41 15 4 21 15 23 47 2 34
7 42 26 44 18 3 22 10 22 38 0 22 6 37 16 41 8 3 20 16 25 29 4 13 15 24 23
24 10 0 16 13 18 43 2 35 7 43 26 45 18 3 22 10 22 39 0 26 5 36 20 40 16 4
20 14 20 45 0 31 4 41 20 45 11 3 20 11 20 19 0 7 9 19 20 27 11 8 23 28 26
46 4 17 15 36 25 42 17 9 19 23 19 123 0 102 -2 114 -19 119 -12 3 -20 17 -24
44 -5 29 -13 42 -27 46 -12 3 -20 14 -20 26 0 12 -6 21 -15 21 -7 0 -18 7 -23
17 -7 11 -28 18 -67 21 -45 4 -59 9 -62 23 -5 17 -16 19 -83 19 -69 0 -78 -2
-83 -20z"/>
<path d="M3037 10071 c-3 -14 -17 -19 -61 -23 -44 -4 -60 -10 -72 -26 -8 -12
-22 -22 -30 -22 -8 0 -14 -7 -14 -16 0 -9 -9 -18 -20 -21 -15 -4 -20 -14 -20
-40 0 -26 -5 -36 -19 -40 -38 -10 -38 -246 0 -256 14 -4 19 -14 19 -40 0 -26
5 -36 20 -40 12 -3 20 -14 20 -26 0 -15 6 -21 21 -21 12 0 23 -8 26 -20 4 -15
14 -20 39 -20 28 0 36 -5 44 -25 8 -20 16 -25 46 -25 27 0 37 -5 41 -20 3 -11
14 -20 25 -20 11 0 22 -9 25 -20 4 -15 14 -20 39 -20 28 0 36 -5 44 -25 8 -20
16 -25 46 -25 27 0 37 -5 41 -20 4 -15 14 -20 40 -20 26 0 36 -5 40 -20 3 -11
14 -20 25 -20 11 0 22 -8 25 -20 3 -13 17 -22 39 -26 19 -3 39 -15 45 -25 7
-13 21 -19 45 -19 27 0 37 -5 41 -20 3 -11 11 -20 19 -20 7 0 19 -9 27 -20 8
-11 29 -23 47 -26 20 -4 35 -14 37 -26 4 -14 15 -18 45 -18 31 0 41 -4 45 -20
5 -18 14 -20 83 -20 69 0 78 2 83 20 4 17 14 20 61 20 44 0 56 3 56 15 0 9 11
20 24 24 13 5 26 19 29 30 3 12 12 21 20 21 9 0 17 14 21 35 4 19 16 39 26 45
18 10 20 22 20 125 0 102 -2 115 -19 124 -10 6 -22 26 -25 45 -4 22 -13 36
-26 39 -12 3 -20 14 -20 26 0 15 -6 21 -21 21 -12 0 -23 8 -26 20 -4 15 -14
20 -40 20 -27 0 -36 5 -40 20 -4 14 -17 22 -46 27 -26 4 -41 12 -44 24 -3 9
-13 19 -24 22 -10 3 -19 12 -19 21 0 12 -10 16 -41 16 -32 0 -42 4 -46 20 -3
13 -17 22 -39 26 -19 3 -39 15 -45 25 -7 13 -21 19 -45 19 -27 0 -37 5 -41 20
-3 11 -14 20 -25 20 -11 0 -22 8 -25 20 -3 13 -17 22 -39 26 -19 3 -39 15 -45
25 -7 13 -21 19 -45 19 -27 0 -37 5 -41 20 -4 15 -14 20 -40 20 -27 0 -36 5
-40 21 -3 11 -16 25 -29 30 -13 4 -24 15 -24 24 0 12 -13 15 -61 15 -52 0 -62
3 -66 20 -4 17 -14 20 -58 20 -43 0 -54 -3 -58 -19z"/>
<path d="M11507 10070 c-4 -17 -14 -20 -65 -20 -50 0 -60 -3 -65 -19 -3 -11
-17 -21 -40 -25 -23 -4 -37 -13 -40 -26 -3 -13 -14 -20 -30 -20 -16 0 -26 -7
-30 -20 -4 -15 -14 -20 -40 -20 -25 0 -36 -5 -40 -19 -3 -11 -17 -21 -40 -25
-23 -4 -37 -13 -40 -26 -3 -12 -14 -20 -25 -20 -11 0 -22 -9 -25 -20 -4 -16
-14 -20 -45 -20 -30 0 -41 -4 -45 -19 -3 -11 -17 -21 -40 -25 -23 -4 -37 -13
-40 -26 -4 -16 -14 -20 -45 -20 -31 0 -41 -4 -45 -20 -3 -11 -14 -20 -25 -20
-11 0 -22 -8 -25 -19 -3 -11 -17 -21 -40 -25 -23 -4 -37 -13 -40 -26 -4 -16
-14 -20 -45 -20 -31 0 -41 -4 -45 -20 -3 -11 -12 -20 -21 -20 -10 0 -16 -8
-16 -21 0 -12 -8 -23 -20 -26 -13 -3 -22 -17 -26 -40 -4 -23 -14 -37 -25 -40
-17 -5 -19 -17 -19 -128 0 -111 2 -123 19 -128 11 -3 21 -17 25 -40 4 -23 13
-37 26 -40 12 -3 20 -14 20 -26 0 -15 6 -21 21 -21 12 0 23 -8 26 -20 5 -17
14 -20 60 -20 46 0 56 -3 60 -20 5 -18 14 -20 78 -20 64 0 73 2 78 20 4 16 14
20 45 20 30 0 41 4 45 19 3 12 17 20 44 24 29 5 42 13 46 27 3 11 14 20 25 20
11 0 22 9 25 20 4 15 14 20 40 20 25 0 36 5 40 19 3 12 17 20 44 24 29 5 42
13 46 27 4 15 13 20 40 20 26 0 36 5 40 20 3 11 14 20 25 20 11 0 22 9 25 20
4 15 14 20 41 20 30 0 38 5 46 25 8 20 16 25 44 25 25 0 35 5 39 20 3 11 14
20 25 20 11 0 22 9 25 20 4 15 14 20 41 20 30 0 38 5 46 25 8 20 16 25 45 25
25 0 35 4 35 16 0 9 9 18 19 21 11 3 21 14 24 25 3 11 15 22 26 25 16 4 21 13
21 40 0 26 5 36 20 40 19 5 20 14 20 128 0 114 -1 123 -20 128 -15 4 -20 14
-20 41 0 30 -4 36 -21 36 -12 0 -23 8 -26 20 -3 13 -17 22 -40 26 -23 4 -37
14 -40 25 -4 15 -15 19 -45 19 -31 0 -41 4 -45 20 -4 17 -14 20 -58 20 -44 0
-54 -3 -58 -20z"/>
<path d="M6755 9913 c-11 -3 -24 -11 -28 -19 -6 -10 -29 -14 -81 -14 -98 0
-133 -8 -139 -31 -5 -17 -15 -19 -85 -19 -70 0 -80 -2 -85 -19 -4 -16 -16 -19
-82 -23 -58 -3 -79 -7 -86 -20 -5 -9 -27 -19 -48 -23 -27 -4 -41 -13 -44 -26
-4 -16 -14 -19 -65 -19 -51 0 -60 -3 -65 -20 -4 -16 -14 -20 -45 -20 -30 0
-41 -4 -45 -19 -3 -11 -17 -21 -40 -25 -23 -4 -37 -13 -40 -26 -4 -16 -14 -20
-45 -20 -31 0 -41 -4 -45 -20 -3 -11 -14 -20 -25 -20 -11 0 -22 -8 -25 -19 -3
-11 -17 -21 -40 -25 -23 -4 -37 -13 -40 -26 -4 -15 -14 -20 -41 -20 -25 0 -38
-6 -46 -20 -6 -11 -17 -20 -24 -20 -8 0 -16 -9 -19 -21 -3 -11 -15 -23 -26
-26 -12 -3 -21 -12 -21 -20 0 -8 -9 -17 -19 -20 -11 -3 -21 -13 -24 -24 -3
-13 -14 -19 -31 -19 -15 0 -35 -10 -48 -25 -12 -14 -28 -25 -35 -25 -7 0 -13
-7 -13 -16 0 -9 -9 -18 -19 -21 -11 -3 -21 -14 -24 -25 -3 -11 -15 -22 -26
-25 -12 -3 -21 -12 -21 -20 0 -8 -9 -17 -20 -20 -11 -3 -20 -14 -20 -25 0 -12
-9 -22 -21 -25 -12 -4 -22 -17 -26 -35 -3 -16 -12 -32 -20 -35 -8 -3 -19 -16
-24 -29 -4 -13 -15 -24 -24 -24 -9 0 -15 -9 -15 -21 0 -12 -8 -23 -20 -26 -13
-3 -22 -17 -26 -40 -4 -23 -14 -37 -25 -40 -11 -3 -19 -14 -19 -25 0 -11 -9
-22 -20 -25 -15 -4 -20 -14 -20 -39 0 -28 -5 -36 -25 -44 -14 -5 -25 -17 -25
-25 0 -9 -7 -18 -15 -21 -8 -4 -18 -24 -22 -46 -4 -26 -12 -42 -23 -45 -13 -3
-19 -19 -23 -56 -5 -37 -12 -56 -27 -66 -14 -9 -20 -24 -20 -48 0 -26 -5 -36
-20 -40 -17 -5 -20 -14 -20 -65 0 -50 -3 -61 -19 -65 -14 -4 -20 -17 -24 -61
-4 -42 -11 -61 -26 -71 -18 -11 -21 -24 -21 -87 0 -63 -3 -75 -20 -84 -18 -10
-20 -21 -20 -131 0 -112 -1 -121 -20 -126 -20 -5 -20 -14 -20 -368 0 -354 0
-363 20 -368 19 -5 20 -14 20 -126 0 -110 2 -121 20 -131 17 -9 20 -21 20 -89
0 -68 2 -79 18 -84 21 -5 32 -45 32 -117 0 -39 4 -49 20 -53 17 -4 20 -14 20
-65 0 -51 3 -60 20 -65 15 -4 20 -14 20 -40 0 -24 6 -39 21 -48 15 -10 22 -29
26 -71 4 -44 10 -57 24 -61 15 -4 19 -14 19 -45 0 -30 4 -41 19 -45 11 -3 21
-17 25 -40 4 -23 13 -37 26 -40 16 -4 20 -14 20 -45 0 -31 4 -41 20 -45 15 -4
20 -14 20 -41 0 -25 6 -38 20 -46 11 -6 20 -17 20 -25 0 -7 10 -15 23 -17 18
-2 23 -10 25 -45 2 -30 8 -43 18 -43 8 0 19 -11 23 -24 5 -13 16 -26 24 -29 8
-3 17 -21 21 -40 4 -23 13 -37 26 -40 11 -3 20 -12 20 -20 0 -8 8 -17 19 -20
12 -3 20 -17 24 -44 5 -29 13 -42 27 -46 11 -3 20 -12 20 -20 0 -8 9 -17 20
-20 11 -3 20 -14 20 -25 0 -11 9 -22 20 -25 11 -3 20 -12 20 -21 0 -9 7 -16
15 -16 9 0 20 -11 24 -24 5 -13 19 -26 30 -29 16 -4 21 -13 21 -36 0 -20 7
-34 20 -41 11 -6 20 -17 20 -24 0 -8 9 -16 21 -19 11 -3 23 -14 26 -25 3 -11
13 -22 24 -25 10 -3 19 -12 19 -21 0 -9 7 -16 15 -16 9 0 19 -8 22 -17 9 -23
53 -67 76 -76 12 -4 17 -17 17 -42 0 -25 4 -35 16 -35 9 0 18 -9 21 -21 3 -11
16 -25 29 -30 13 -4 24 -15 24 -23 0 -7 9 -16 20 -19 15 -4 20 -14 20 -41 0
-25 6 -38 20 -46 11 -6 20 -17 20 -25 0 -7 10 -15 23 -17 18 -2 23 -10 25 -45
2 -31 8 -43 19 -43 8 0 17 -9 20 -19 3 -11 13 -21 24 -24 15 -4 19 -14 19 -45
0 -30 4 -41 18 -45 19 -4 32 -44 32 -97 0 -19 6 -29 20 -33 17 -4 20 -14 20
-65 0 -50 3 -60 19 -65 14 -3 19 -17 23 -61 3 -38 10 -61 22 -69 11 -8 19 -32
23 -70 4 -39 10 -57 20 -57 7 0 18 -11 22 -24 5 -13 17 -26 25 -29 9 -4 16
-13 16 -22 0 -9 9 -15 21 -15 12 0 23 -8 26 -20 3 -11 12 -20 20 -20 8 0 17
-9 20 -20 5 -20 14 -20 928 -20 914 0 923 0 928 20 4 15 14 20 41 20 25 0 38
6 46 20 6 11 17 20 25 20 7 0 15 10 17 23 2 14 11 23 26 25 12 2 22 10 22 17
0 8 9 19 20 25 14 8 20 21 20 46 0 27 5 37 20 41 15 4 20 14 20 39 0 22 7 38
21 48 16 11 23 29 27 66 3 36 10 54 23 61 13 7 19 21 19 45 0 27 5 37 20 41
11 3 20 11 20 19 0 7 9 19 20 27 11 8 23 29 26 47 4 20 14 35 26 37 10 3 18
14 18 25 0 11 8 22 20 25 13 3 22 17 26 40 4 22 14 37 24 40 10 3 20 13 23 24
3 10 12 19 21 19 10 0 16 8 16 21 0 12 8 23 20 26 11 3 20 11 20 17 0 7 11 22
25 34 15 13 25 33 25 48 0 17 6 28 19 31 11 3 21 13 24 24 3 10 12 19 20 19 8
0 17 9 20 21 3 11 15 23 26 26 12 3 21 11 21 19 0 7 9 18 20 24 13 7 20 21 20
41 0 22 6 32 24 38 13 5 26 19 29 30 3 12 12 21 21 21 9 0 16 7 16 16 0 9 9
18 20 21 11 3 20 14 20 25 0 11 8 22 19 25 11 3 21 13 24 24 3 11 14 19 26 19
15 0 21 6 21 21 0 12 8 23 19 26 14 4 21 15 23 42 2 29 8 37 26 39 12 2 22 10
22 19 0 8 9 17 20 20 11 3 20 14 20 25 0 11 9 22 20 25 11 3 20 12 20 20 0 8
9 17 20 20 13 3 22 17 26 40 4 23 14 37 25 40 11 3 19 14 19 25 0 11 9 22 20
25 11 3 20 14 20 25 0 11 8 22 20 25 13 3 22 17 26 40 4 23 14 37 25 40 11 3
19 14 19 25 0 11 9 22 20 25 15 4 20 14 20 40 0 27 5 36 20 40 14 4 22 17 27
46 4 27 12 41 24 44 14 4 19 15 19 40 0 26 5 36 19 40 14 3 22 17 26 44 4 23
14 43 26 49 13 8 19 21 19 46 0 27 5 37 20 41 16 4 20 14 20 45 0 31 4 41 20
45 17 5 20 14 20 59 0 43 4 56 22 68 16 12 22 28 26 72 4 44 9 58 23 61 16 5
19 15 19 65 0 51 3 61 20 65 18 5 20 14 20 84 0 69 2 80 23 94 20 14 22 24 25
133 3 100 7 120 23 135 18 17 19 37 19 406 0 380 0 389 -20 394 -18 5 -20 14
-20 100 0 119 -7 154 -31 160 -16 4 -19 15 -19 65 0 51 -3 60 -20 65 -18 5
-20 14 -20 85 0 71 -2 80 -20 85 -16 4 -20 14 -20 45 0 30 -4 41 -18 45 -19 4
-32 44 -32 97 0 19 -6 29 -20 33 -15 4 -20 14 -20 41 0 24 -6 38 -19 45 -10 6
-21 25 -25 42 -3 18 -15 38 -26 46 -11 8 -20 20 -20 27 0 8 -9 16 -20 19 -15
4 -20 14 -20 41 0 24 -6 38 -19 45 -10 6 -22 26 -25 45 -4 22 -13 36 -26 39
-11 3 -20 12 -20 20 0 8 -9 17 -20 20 -12 3 -20 14 -20 26 0 12 -6 21 -15 21
-9 0 -20 11 -24 24 -5 13 -19 26 -30 29 -16 4 -21 13 -21 40 0 26 -5 36 -20
40 -11 3 -20 12 -20 20 0 8 -9 17 -21 20 -11 3 -23 14 -26 25 -3 11 -13 22
-24 25 -10 3 -19 12 -19 20 0 8 -9 17 -20 20 -11 3 -20 12 -20 21 0 10 -8 16
-21 16 -12 0 -23 8 -26 19 -3 11 -13 21 -24 24 -11 3 -19 14 -19 26 0 17 -6
21 -36 21 -28 0 -37 5 -41 21 -3 11 -16 25 -29 30 -13 4 -24 15 -24 24 0 8 -7
15 -15 15 -8 0 -19 9 -25 20 -8 14 -21 20 -46 20 -27 0 -37 5 -41 20 -3 11
-11 20 -17 20 -7 0 -22 11 -34 25 -13 15 -33 25 -48 25 -17 0 -28 6 -31 20 -4
16 -14 20 -45 20 -31 0 -41 4 -45 20 -3 13 -17 22 -39 26 -19 3 -39 15 -45 25
-7 13 -21 19 -45 19 -27 0 -37 5 -41 20 -4 16 -14 20 -45 20 -31 0 -41 4 -45
19 -4 14 -17 20 -61 24 -38 4 -61 12 -70 24 -10 13 -30 19 -89 21 -64 4 -76 7
-80 23 -5 17 -15 19 -85 19 -70 0 -80 2 -85 19 -6 23 -41 31 -144 31 -64 0
-80 3 -88 18 -9 16 -45 17 -513 18 -277 1 -512 0 -523 -3z m623 -1930 c2 -68
6 -84 21 -92 15 -8 19 -26 23 -86 4 -58 9 -79 24 -89 15 -11 19 -31 22 -109 4
-83 7 -96 23 -100 17 -5 19 -15 19 -90 0 -76 2 -85 20 -90 17 -4 20 -14 20
-54 0 -96 11 -151 31 -156 17 -5 19 -15 19 -90 0 -76 2 -85 20 -90 18 -5 20
-14 20 -86 0 -70 3 -82 20 -91 16 -8 20 -21 20 -58 0 -95 11 -150 31 -155 17
-5 19 -15 19 -90 0 -76 2 -85 20 -90 18 -5 20 -14 20 -85 0 -71 2 -80 20 -85
17 -4 20 -14 20 -54 0 -96 11 -151 31 -156 17 -5 19 -15 19 -90 0 -76 2 -85
20 -90 18 -5 20 -14 22 -96 1 -50 2 -99 2 -108 1 -28 -54 -31 -61 -4 -4 17
-13 21 -45 21 -31 0 -41 4 -45 20 -4 15 -14 20 -40 20 -26 0 -36 5 -40 19 -3
13 -17 22 -44 26 -21 4 -43 14 -48 22 -5 10 -28 18 -58 20 l-50 5 -5 -77 c-4
-56 -10 -82 -21 -90 -13 -9 -18 -37 -23 -116 -5 -83 -11 -108 -25 -122 -16
-15 -19 -34 -19 -133 0 -105 -2 -116 -19 -121 -17 -4 -19 -17 -23 -120 -3
-100 -6 -117 -23 -129 -16 -12 -20 -29 -23 -117 -3 -80 -7 -105 -20 -115 -14
-10 -18 -37 -22 -130 -5 -113 -6 -117 -28 -120 -17 -3 -25 2 -29 16 -3 11 -13
22 -23 25 -15 4 -18 18 -21 101 -4 86 -6 97 -26 111 -21 14 -23 25 -23 94 0
70 -2 79 -20 84 -18 5 -20 14 -20 86 0 68 -3 82 -19 90 -15 9 -20 25 -23 85
-3 60 -7 78 -22 89 -15 11 -20 31 -24 95 -4 66 -8 81 -22 85 -15 4 -19 19 -21
100 -3 75 -8 99 -21 109 -12 9 -17 33 -20 86 -3 61 -7 75 -26 88 -20 13 -22
24 -22 93 0 70 -2 79 -20 84 -18 5 -20 14 -20 85 0 69 -2 80 -18 84 -16 5 -20
20 -25 103 -6 82 -10 100 -27 112 -17 12 -20 25 -20 92 0 70 -2 79 -20 84 -18
5 -20 14 -20 85 0 71 -2 80 -20 85 -21 5 -21 7 -24 165 -1 22 4 28 27 30 22 3
30 -1 34 -16 5 -22 30 -32 81 -32 25 0 35 -5 39 -20 4 -16 14 -20 45 -20 31 0
41 -4 45 -19 4 -15 15 -21 47 -23 34 -2 42 -7 44 -25 3 -19 10 -23 38 -23 l34
0 0 61 c0 52 3 62 20 66 18 5 20 14 20 110 0 94 2 105 19 110 24 6 31 41 31
160 0 86 2 95 20 100 18 5 20 14 20 110 0 94 2 105 19 110 16 4 19 19 24 126
6 100 10 124 24 135 15 10 19 32 21 114 4 89 6 101 23 105 16 5 19 15 19 62 0
64 5 73 35 69 18 -3 20 -11 23 -85z"/>
<path d="M2298 7598 c-2 -18 -10 -24 -39 -26 -27 -2 -38 -8 -42 -23 -3 -11
-15 -23 -26 -26 -16 -4 -21 -13 -21 -40 0 -26 -5 -36 -19 -40 -26 -7 -31 -31
-31 -143 0 -112 5 -136 31 -143 11 -3 19 -14 19 -26 0 -13 6 -21 16 -21 9 0
18 -9 21 -20 3 -11 12 -20 19 -20 8 0 19 -11 24 -25 5 -14 16 -25 24 -25 8 0
19 -8 25 -17 9 -17 50 -18 604 -21 576 -2 595 -2 599 16 4 13 18 22 41 26 23
4 37 13 40 26 3 12 14 20 26 20 13 0 21 6 21 16 0 9 9 18 20 21 16 4 20 14 20
45 0 31 4 41 19 45 23 6 31 31 31 103 0 72 -8 97 -31 103 -15 4 -19 14 -19 45
0 31 -4 41 -20 45 -11 3 -20 12 -20 20 0 8 -9 17 -20 20 -11 3 -20 12 -20 20
0 9 -10 17 -22 19 -15 2 -24 11 -26 26 l-3 22 -619 0 -619 0 -3 -22z"/>
<path d="M11118 7598 c-2 -15 -11 -24 -24 -26 -12 -2 -24 -12 -27 -23 -3 -10
-12 -19 -20 -19 -8 0 -17 -9 -20 -20 -3 -11 -12 -20 -20 -20 -10 0 -18 -14
-22 -41 -5 -29 -13 -43 -26 -46 -17 -5 -19 -16 -19 -103 0 -87 2 -98 19 -103
13 -3 21 -17 26 -46 4 -27 12 -41 22 -41 8 0 17 -9 20 -19 3 -11 13 -21 24
-24 10 -3 19 -12 19 -21 0 -11 13 -18 41 -22 29 -5 43 -13 46 -25 5 -18 29
-19 589 -19 572 0 585 0 601 20 10 11 25 20 35 20 10 0 18 9 20 23 2 14 11 23
26 25 12 2 22 10 22 19 0 8 9 17 20 20 11 3 20 14 20 25 0 11 9 22 20 25 19 5
20 14 20 143 0 129 -1 138 -20 143 -14 3 -20 14 -20 31 0 15 -10 35 -25 48
-14 12 -25 27 -25 34 0 8 -16 14 -37 16 -31 2 -39 7 -41 26 l-3 22 -619 0
-619 0 -3 -22z"/>
<path d="M3817 5640 c-4 -16 -14 -20 -45 -20 -30 0 -41 -4 -45 -19 -3 -13 -17
-21 -45 -26 -28 -4 -42 -12 -45 -26 -4 -14 -14 -19 -40 -19 -26 0 -36 -5 -40
-20 -3 -14 -14 -20 -31 -20 -15 0 -35 -10 -48 -25 -12 -14 -27 -25 -34 -25 -6
0 -14 -9 -17 -20 -4 -16 -14 -20 -45 -20 -31 0 -41 -4 -45 -20 -4 -15 -14 -20
-39 -20 -25 0 -36 -6 -43 -22 -7 -17 -20 -24 -46 -26 -27 -2 -38 -9 -42 -23
-3 -11 -14 -19 -25 -19 -11 0 -22 -9 -25 -20 -4 -15 -14 -20 -40 -20 -26 0
-36 -5 -40 -19 -3 -13 -17 -21 -46 -26 -27 -4 -41 -12 -41 -22 0 -8 -9 -17
-19 -20 -11 -3 -21 -13 -24 -24 -3 -11 -14 -19 -26 -19 -15 0 -21 -6 -21 -21
0 -12 -8 -23 -19 -26 -11 -3 -21 -13 -24 -24 -3 -10 -12 -19 -20 -19 -19 0
-31 -120 -22 -218 6 -57 11 -71 26 -75 11 -3 19 -12 19 -21 0 -9 7 -16 15 -16
9 0 19 -8 22 -17 9 -23 53 -67 76 -76 9 -3 17 -13 17 -22 0 -13 21 -15 144
-15 135 0 144 1 149 20 4 15 14 20 40 20 26 0 36 5 40 19 3 13 17 21 45 26 28
4 42 12 45 26 3 11 14 19 25 19 11 0 22 9 25 20 4 15 14 20 40 20 26 0 36 5
40 19 3 13 17 21 45 26 28 4 42 12 45 26 4 14 14 19 40 19 26 0 36 5 40 20 3
11 14 20 25 20 11 0 22 8 25 19 3 13 17 21 45 26 28 4 42 12 45 26 4 14 14 19
40 19 26 0 36 5 40 20 3 14 14 20 31 20 15 0 35 10 48 25 12 14 27 25 34 25 6
0 14 9 17 20 4 15 14 20 41 20 30 0 38 5 46 25 5 14 16 25 25 25 11 0 15 10
15 36 0 27 5 37 19 41 26 7 31 30 31 145 0 86 -2 98 -20 108 -10 6 -22 26 -26
44 -4 22 -13 36 -25 39 -10 3 -19 12 -19 21 0 9 -7 16 -15 16 -9 0 -20 11 -25
25 -8 20 -16 25 -46 25 -27 0 -37 5 -41 20 -5 18 -14 20 -103 20 -89 0 -98 -2
-103 -20z"/>
<path d="M10637 5640 c-4 -16 -14 -20 -46 -20 -35 0 -41 -3 -41 -21 0 -12 -8
-23 -19 -26 -11 -3 -21 -13 -24 -24 -3 -11 -14 -19 -26 -19 -17 0 -21 -6 -21
-36 0 -27 -5 -37 -20 -41 -19 -5 -20 -14 -20 -128 0 -111 2 -123 19 -128 11
-3 21 -17 25 -40 4 -23 13 -37 26 -40 12 -3 20 -14 20 -26 0 -17 6 -21 36 -21
27 0 37 -5 41 -20 3 -11 14 -20 25 -20 11 0 22 -9 25 -20 4 -14 17 -22 46 -27
27 -4 41 -12 44 -24 4 -14 15 -19 40 -19 26 0 36 -5 40 -19 3 -14 17 -22 45
-26 28 -5 42 -13 45 -26 3 -11 14 -19 25 -19 11 0 22 -9 25 -20 4 -15 14 -20
40 -20 27 0 36 -5 40 -20 4 -14 17 -22 46 -27 27 -4 41 -12 44 -24 4 -14 15
-19 40 -19 26 0 36 -5 40 -20 3 -11 14 -20 25 -20 11 0 22 -8 25 -20 3 -13 17
-22 39 -26 19 -3 39 -15 45 -25 7 -13 21 -19 45 -19 27 0 37 -5 41 -20 5 -19
14 -20 148 -20 134 0 143 1 148 20 3 11 12 20 21 20 9 0 16 7 16 15 0 9 11 20
24 24 13 5 26 19 29 30 3 12 12 21 20 21 8 0 17 9 20 20 3 11 12 20 21 20 14
0 16 19 16 145 0 126 -2 145 -16 145 -9 0 -18 9 -21 20 -3 11 -12 20 -20 20
-8 0 -17 9 -20 21 -3 11 -16 25 -29 30 -13 4 -24 15 -24 24 0 8 -7 15 -16 15
-9 0 -18 9 -21 19 -3 14 -17 22 -45 26 -28 5 -42 13 -45 26 -4 14 -14 19 -39
19 -23 0 -37 6 -44 20 -8 14 -21 20 -46 20 -27 0 -37 5 -41 19 -3 11 -14 21
-25 24 -11 3 -22 15 -25 26 -4 16 -13 21 -40 21 -26 0 -36 5 -40 20 -4 16 -14
20 -45 20 -31 0 -41 4 -45 20 -3 11 -11 20 -17 20 -7 0 -22 11 -34 25 -13 15
-33 25 -48 25 -17 0 -28 6 -31 20 -4 16 -14 20 -45 20 -31 0 -41 4 -45 20 -3
13 -17 22 -40 26 -23 4 -37 14 -40 25 -4 15 -15 19 -45 19 -31 0 -41 4 -45 20
-5 18 -14 20 -103 20 -89 0 -98 -2 -103 -20z"/>
<path d="M6557 3290 c-4 -16 -14 -20 -45 -20 -31 0 -41 -4 -45 -20 -3 -11 -14
-20 -25 -20 -11 0 -22 -9 -25 -20 -3 -11 -12 -20 -21 -20 -10 0 -16 -8 -16
-21 0 -12 -8 -23 -20 -26 -15 -4 -20 -14 -20 -40 0 -26 -5 -36 -20 -40 -18 -5
-20 -14 -20 -83 0 -69 2 -78 20 -83 16 -4 20 -14 20 -45 0 -31 4 -41 20 -45
11 -3 20 -12 20 -21 0 -9 7 -16 15 -16 9 0 20 -11 24 -24 5 -13 19 -26 30 -29
12 -3 21 -12 21 -21 0 -15 74 -16 795 -16 721 0 795 1 795 16 0 9 9 18 21 21
11 3 25 16 30 29 4 13 15 24 24 24 8 0 15 7 15 16 0 9 9 18 20 21 16 4 20 14
20 45 0 31 4 41 20 45 18 5 20 14 20 83 0 69 -2 78 -20 83 -15 4 -20 14 -20
41 0 25 -6 38 -20 46 -11 6 -20 19 -20 30 0 26 -27 50 -57 50 -16 0 -27 7 -30
20 -4 16 -14 20 -45 20 -31 0 -41 4 -45 20 -5 20 -14 20 -708 20 -694 0 -703
0 -708 -20z"/>
<path d="M6470 2475 c0 -9 -8 -19 -17 -22 -23 -9 -67 -53 -76 -75 -3 -10 -13
-18 -22 -18 -11 0 -15 -11 -15 -41 0 -32 -4 -42 -20 -46 -18 -5 -20 -14 -20
-83 0 -69 2 -78 20 -83 15 -4 20 -14 20 -40 0 -26 5 -36 20 -40 13 -3 20 -14
20 -30 0 -33 24 -57 57 -57 16 0 27 -7 30 -20 4 -16 14 -20 45 -20 31 0 41 -4
45 -20 5 -20 14 -20 708 -20 694 0 703 0 708 20 4 16 14 20 45 20 31 0 41 4
45 20 3 13 14 20 30 20 35 0 87 54 94 97 4 23 13 37 25 41 16 4 18 15 18 97 0
84 -2 93 -20 98 -16 4 -20 14 -20 46 0 30 -4 41 -15 41 -9 0 -20 11 -24 24 -5
13 -19 26 -30 29 -12 3 -21 12 -21 20 0 8 -9 17 -20 20 -11 3 -20 12 -20 21 0
15 -74 16 -795 16 -707 0 -795 -2 -795 -15z"/>
<path d="M6987 1690 c-3 -13 -14 -20 -29 -20 -28 0 -42 -9 -51 -32 -3 -10 -15
-18 -26 -18 -10 0 -21 -9 -24 -20 -3 -11 -12 -20 -21 -20 -9 0 -16 -6 -16 -12
0 -7 -3 -23 -6 -35 l-6 -23 451 0 451 0 0 34 c0 25 -5 35 -20 39 -11 3 -20 12
-20 21 0 10 -8 16 -21 16 -12 0 -23 8 -26 20 -3 13 -17 22 -40 26 -23 4 -37
14 -40 25 -5 18 -20 19 -278 19 -264 0 -273 -1 -278 -20z"/>
</g>
</svg>
